<?xml version="1.0" standalone="no"?><!DOCTYPE svg PUBLIC "-//W3C//DTD SVG 1.1//EN" "http://www.w3.org/Graphics/SVG/1.1/DTD/svg11.dtd"><svg t="1526519305076" class="icon" style="" viewBox="0 0 1024 1024" version="1.1" xmlns="http://www.w3.org/2000/svg" p-id="1711" xmlns:xlink="http://www.w3.org/1999/xlink" width="32" height="32"><defs><style type="text/css"></style></defs><path d="M645.632 807.424v-313.856h23.552c12.8 0 23.552 9.728 23.552 21.504v199.68c0 51.2 45.056 92.672 100.864 92.672 55.808 0 100.864-41.472 100.864-92.672v-384c0-19.968-9.216-38.4-23.552-51.2l-82.432-75.264c-14.848-13.824-38.912-13.824-53.76 0s-14.848 35.84 0 49.664l53.248 49.152-39.424 37.888c-12.8 12.288-12.8 31.744 0 44.032 6.144 6.144 14.848 9.216 23.552 9.216h44.544V715.264c0 11.776-10.24 21.504-23.552 21.504-12.8 0-23.552-9.728-23.552-21.504v-199.68c0-51.2-45.056-92.672-100.864-92.672h-23.04v-171.008c0-31.744-27.648-56.832-62.464-56.832h-326.144c-34.304 0-62.464 25.6-62.464 56.832V807.424h-7.68c-21.504 0-38.912 15.872-38.912 35.84s17.408 35.84 38.912 35.84h466.432c21.504 0 38.912-15.872 38.912-35.84s-17.408-35.84-38.912-35.84h-7.68z m-338.944-541.696h226.816c18.944 0 34.304 13.824 34.304 31.232v151.04c0 17.408-15.36 31.232-34.304 31.232h-226.816c-18.944 0-34.304-13.824-34.304-31.232v-151.04c0-17.408 15.36-31.232 34.304-31.232z" fill="#606266" p-id="1712"></path></svg>