<svg 
	class="nurse" 
	t="1526434902295" 
	style="" viewBox="0 0 1024 1024" version="1.1" xmlns="http://www.w3.org/2000/svg" p-id="8780" xmlns:xlink="http://www.w3.org/1999/xlink" 
	width="32" 
	height="32"
	>
	<path 
		d="M694.243074 938.482413c0 31.154667-5.815538 48.60128-25.754525 62.309333-54.520667 36.762507-262.945388 23.573698-313.000552 3.427014-33.439342-13.292658-25.858373-62.309334-25.858374-73.628863V343.324428c0-61.374694 72.694223-97.617956 75.705841-99.591085 24.404489-14.0196 24.092942-48.185885 24.092942-48.185884l1.661582-12.046472 1.661582-75.70584s0-12.461867 5.088596-17.135067 22.43136-1.765431 22.43136-1.765431V73.421165c0-7.373271 0.519244-14.434996 5.088596-15.473485S484.676015 54.520667 484.676015 54.520667V40.812614L353.722566 28.766142a135.938196 135.938196 0 0 1-3.427014-17.238915C384.981081-1.86928 493.191624-1.86928 536.60046 2.907769s71.136489 26.585316 63.55552 32.7124-55.039911 5.192444-55.039911 5.192445v15.473484s20.769778 0 20.769778 3.427013 0.623093 16.096578 1.765431 22.327512 4.361653 7.892516 10.384889 8.619457 13.811902 1.973129 13.811902 15.473485V197.31289c0 51.301351 102.602703 67.501778 103.121947 157.227218 0.103849 143.311467-0.726942 435.334544-0.726942 583.942305z" 
		fill="#606266" 
		p-id="8781"
	>
	</path>
	<path 
		d="M421.639739 438.969255h182.35865a34.373982 34.373982 0 0 1 34.373982 34.373983v353.086223a34.373982 34.373982 0 0 1-34.373982 34.373983H421.639739a34.373982 34.373982 0 0 1-34.373982-34.373983v-353.086223a34.373982 34.373982 0 0 1 34.373982-34.373983z" 
		fill="#fff" p-id="8782"
	>
	</path>
</svg>
