<?xml version="1.0" standalone="no"?><!DOCTYPE svg PUBLIC "-//W3C//DTD SVG 1.1//EN" "http://www.w3.org/Graphics/SVG/1.1/DTD/svg11.dtd"><svg t="1526435035047" class="icon" style="" viewBox="0 0 1040 1024" version="1.1" xmlns="http://www.w3.org/2000/svg" p-id="9137" xmlns:xlink="http://www.w3.org/1999/xlink" width="32.5" height="32"><defs><style type="text/css"></style></defs><path d="M799.677978 735.237317c-21.019733 0-39.418778 18.399045-39.418778 39.418778 0 20.985964 17.073864 39.385009 39.418778 39.385009 22.312168 0 39.385009-17.073864 39.385009-39.385009C839.064011 752.311181 821.990147 735.237317 799.677978 735.237317L799.677978 735.237317 799.677978 735.237317zM271.588535 814.042127c22.312168 0 39.385009-17.073864 39.385009-39.385009 0-22.344914-17.073864-39.418778-39.385009-39.418778-21.018709 0-38.126342 18.399045-39.418778 39.418778C232.169757 795.642059 249.242598 814.042127 271.588535 814.042127L271.588535 814.042127 271.588535 814.042127zM1020.375449 480.491379 907.392212 255.915577c-5.238304-14.422478-19.693528-24.931832-36.800138-24.931832L652.54599 230.983745c-22.344914 0-39.418778 17.073864-39.418778 39.385009l0 317.802066L383.246591 357.063255l-1.326205 0L133.639696 107.523899c-14.455223-15.747659-40.712237-15.747659-55.166437 0-15.781428 14.4542-15.781428 40.711214 0 55.165414l3.944845 3.944845 0 261.310448c0 42.037419 15.747659 55.166437 30.201859 66.969251 3.945869 2.651386 7.890714 6.564509 7.890714 14.4542 0 3.944845-1.326205 7.890714-3.944845 10.509355l-1.326205 0c-1.293459 2.619664-6.564509 3.944845-10.509355 3.944845-3.944845 0-7.890714-1.326205-10.509355-3.944845-2.619664-2.618641-3.944845-6.564509-3.944845-10.509355 0-13.127995-10.510378-23.63735-23.638373-23.63735s-22.311145 10.509355-22.311145 23.63735c0 17.073864 6.564509 32.821523 18.3663 44.657082 11.835559 10.509355 26.290783 18.399045 43.363623 18.399045 17.073864 0 32.821523-7.889691 43.330878-18.399045l1.326205-2.618641c10.509355-10.509355 17.073864-26.257014 17.073864-42.038442 0-30.201859-11.80179-39.385009-24.963555-51.221592-6.564509-5.237281-13.127995-10.509355-13.127995-30.201859L129.695874 213.910904l186.550767 186.484252 0 198.253296L39.054481 598.648452c-22.344914 0-39.418778 18.400069-39.418778 39.418778L-0.364297 774.656095c0 22.312168 17.073864 39.385009 39.418778 39.385009l85.401042 0c7.856945 26.257014 21.019733 49.895387 40.711214 69.586868 27.583219 27.583219 65.675792 44.657082 109.039415 44.657082 42.037419 0 81.423451-17.073864 109.039415-44.657082 18.3663-18.3663 32.821523-43.330878 40.711214-69.586868l229.881644 0c6.597255 26.257014 21.018709 49.895387 39.417755 69.586868 27.583219 27.583219 65.675792 44.657082 109.039415 44.657082 40.711214 0 78.837556-17.073864 105.09457-43.330878l2.618641-2.618641c18.399045-18.400069 32.854269-43.364647 39.417755-69.621661l35.473933 0c22.344914 0 39.418778-18.3663 39.418778-39.385009L1024.319272 497.565243C1024.321318 492.294193 1022.995113 485.729683 1020.375449 480.491379L1020.375449 480.491379 1020.375449 480.491379zM393.755945 479.166197l119.54877 119.482255L393.755945 598.648452 393.755945 479.166197 393.755945 479.166197 393.755945 479.166197zM613.127212 735.237317 385.866255 735.237317c-22.344914 0-39.418778 17.073864-39.418778 39.418778l0 1.292436c0 21.019733-9.184173 39.385009-22.312168 52.514027-13.161764 13.161764-31.529087 21.019733-52.546773 21.019733-21.018709 0-39.418778-7.856945-52.546773-21.019733-13.161764-13.127995-22.344914-32.8205-22.344914-52.514027 0-22.312168-17.073864-39.385009-39.418778-39.385009L78.473259 736.563522l0-57.785078L613.127212 678.778444 613.127212 735.237317 613.127212 735.237317 613.127212 735.237317 613.127212 735.237317zM691.964768 309.754786l76.185146 0 0-1.292436 76.185146 0 63.057151 127.372969L691.964768 435.83532 691.964768 309.754786 691.964768 309.754786 691.964768 309.754786zM944.191326 735.237317l-30.234605 0c-22.312168 0-39.419801 17.073864-39.419801 39.418778l0 1.292436c0 21.019733-7.856945 39.385009-21.018709 52.514027l-1.292436 1.327228c-13.127995 13.127995-31.528064 19.692504-51.254338 19.692504-21.018709 0-39.385009-7.856945-52.546773-21.019733-13.127995-13.127995-22.312168-31.494295-22.312168-52.514027 0-19.692504-14.4542-36.766368-34.146705-39.385009L691.965791 500.581949l240.389976 0 11.835559 22.344914L944.191326 735.237317 944.191326 735.237317 944.191326 735.237317 944.191326 735.237317z" p-id="9138" fill="#606266"></path></svg>