<?xml version="1.0" standalone="no"?><!DOCTYPE svg PUBLIC "-//W3C//DTD SVG 1.1//EN" "http://www.w3.org/Graphics/SVG/1.1/DTD/svg11.dtd"><svg t="1526435061592" class="icon" style="" viewBox="0 0 1024 1024" version="1.1" xmlns="http://www.w3.org/2000/svg" p-id="9797" xmlns:xlink="http://www.w3.org/1999/xlink" width="32" height="32"><defs><style type="text/css"></style></defs><path d="M512.013303 159.399383c-57.615209 0-104.501052 47.318702-104.501052 105.496729 0 58.175981 46.885843 105.494683 104.501052 105.494683 57.615209 0 104.503099-47.318702 104.503099-105.494683C616.516402 206.717062 569.628512 159.399383 512.013303 159.399383zM512.013303 315.986721c-27.582195 0-50.065256-22.912849-50.065256-51.090609 0-28.145014 22.48306-51.060933 50.065256-51.060933 27.616988 0 50.100048 22.914896 50.100048 51.060933C562.112328 293.073872 539.629267 315.986721 512.013303 315.986721z" p-id="9798" fill="#606266"></path><path d="M512.013303 616.745622c-57.615209 0-104.501052 47.316655-104.501052 105.494683 0 58.178027 46.885843 105.496729 104.501052 105.496729 57.615209 0 104.503099-47.318702 104.503099-105.496729C616.516402 664.062278 569.628512 616.745622 512.013303 616.745622zM512.013303 773.33296c-27.582195 0-50.065256-22.912849-50.065256-51.092655 0-28.177759 22.48306-51.090609 50.065256-51.090609 27.616988 0 50.100048 22.912849 50.100048 51.090609C562.112328 750.420111 539.629267 773.33296 512.013303 773.33296z" p-id="9799" fill="#606266"></path><path d="M512.013303 383.40418c-57.615209 0-104.501052 47.316655-104.501052 105.494683s46.885843 105.496729 104.501052 105.496729c57.615209 0 104.503099-47.318702 104.503099-105.496729S569.628512 383.40418 512.013303 383.40418zM512.013303 539.991518c-27.582195 0-50.065256-22.914896-50.065256-51.092655 0-28.145014 22.48306-51.058886 50.065256-51.058886 27.616988 0 50.100048 22.912849 50.100048 51.058886C562.112328 517.076622 539.629267 539.991518 512.013303 539.991518z" p-id="9800" fill="#606266"></path><path d="M859.361289 670.023036c-5.464455-8.40953-14.007015-12.846586-24.635073-12.846586l-101.954043 0 0-64.667835 44.304042 0c31.722492 0 68.675102-59.337433 75.760474-75.266218 4.27128-9.602705 23.676236-67.714218 6.5246-94.169753-5.464455-8.411577-13.975293-12.848633-24.635073-12.848633l-101.954043 0 0-64.634066 44.304042 0c31.6877 0 68.64031-59.371202 75.760474-75.29794 4.27128-9.602705 23.676236-67.714218 6.5246-94.169753-5.464455-8.411577-13.975293-12.848633-24.635073-12.848633l-101.954043 0 0-13.608949 30.628578 0L763.40075 90.361007 256.287037 90.361007l0 59.302641 30.662347 0 0 13.608949-97.647971 0c-10.661827 0-19.205411 4.437056-24.669866 12.880355-17.184381 26.52205 2.285043 84.535325 6.556323 94.105285 7.151887 15.959483 44.205804 75.330686 75.760474 75.330686l40.001039 0 0 64.634066-97.647971 0c-10.630105 0-19.172665 4.437056-24.635073 12.848633-17.219173 26.589588 2.25025 84.535325 6.522554 94.105285 7.085372 15.926738 44.005236 75.330686 75.760474 75.330686l40.001039 0 0 64.667835-97.647971 0c-10.661827 0-19.205411 4.437056-24.669866 12.880355-17.184381 26.554796 2.285043 84.500533 6.556323 94.071516 7.085372 15.959483 44.040029 75.362408 75.760474 75.362408l40.001039 0 0 62.417585 74.999135 0 0 28.807093 295.823496 0 0-28.807093 74.999135 0 0-62.417585 44.304042 0c31.6877 0 68.675102-59.369156 75.727729-75.295893C857.107969 754.592131 876.54567 696.513364 859.361289 670.023036zM809.989835 717.108424c-2.251274 12.085246-5.595438 21.754466-6.556323 24.072255l-0.398066 0.928139c-1.886977 4.27128-8.807596 15.793708-16.986883 26.25599-7.349385 9.404184-12.68081 14.338566-15.59621 16.721847l-92.085278 0 0 62.417585-75.03188 0 0 28.807093L416.385339 876.311333 416.385339 847.505263l-74.999135 0 0-62.417585-87.813998 0c-2.915399-2.384303-8.243755-7.317663-15.59621-16.721847-8.577353-10.991332-15.232936-22.217001-17.151635-26.554796-0.76134-1.722224-4.306072-11.489682-6.788613-24.736381-0.363274-1.853208-0.694825-3.708462-0.958838-5.496178l128.309294 0L341.386204 538.104541l-87.813998 0c-2.947122-2.418073-8.31027-7.384178-15.59621-16.756639-8.245801-10.495028-14.602579-21.191648-16.655332-25.363667l-0.429789-0.99363c-1.027399-2.317789-4.53734-12.44852-6.855128-24.832572-0.363274-1.886977-0.662079-3.708462-0.926092-5.496178l128.276549 0L341.386204 291.152103l-87.813998 0c-2.616594-2.117221-8.046257-7.05058-15.59621-16.7198-8.345062-10.729365-14.669094-21.358447-16.655332-25.496697l-0.464581-0.960885c-0.926092-2.085498-4.468778-12.251022-6.821359-24.832572-0.363274-1.855254-0.694825-3.675716-0.926092-5.464455l128.276549 0 0-72.879867 336.982918 0 0 72.879867 132.547829 0c-0.264013 1.788739-0.560772 3.609201-0.926092 5.53097-2.119267 11.223622-5.232165 20.761859-6.522554 24.037463l-0.36532 0.89437c-1.953492 4.27128-8.67559 15.59621-17.053398 26.292829-7.581676 9.66922-13.012362 14.635325-15.627932 16.754592l-92.052532 0 0 173.47496 132.547829 0c-0.264013 1.788739-0.560772 3.609201-0.926092 5.496178-2.351558 12.515035-5.894244 22.681582-6.887874 24.966625-1.953492 4.304026-8.708336 15.59621-17.053398 26.258037-7.4159 9.53619-12.913101 14.536065-15.59621 16.721847l-92.085278 0 0 173.472913 132.547829 0C810.651914 713.366194 810.355155 715.221448 809.989835 717.108424z" p-id="9801" fill="#606266"></path></svg>